<svg xmlns:xlink="http://www.w3.org/1999/xlink" width="12" height="5" class="mr-2" viewBox="0 0 12 5" fill="none" xmlns="http://www.w3.org/2000/svg">
                                                       <path d="M1.13994 2.5C1.13994 1.645 1.974 0.949997 3 0.949997H5.4V0H3C1.344 0 0 1.12 0 2.5C0 3.88 1.344 5 3 5H5.4V4.05H3C1.974 4.05 1.13994 3.355 1.13994 2.5ZM3.6 3H8.4V2H3.6V3ZM9 0H6.6V0.949997H9C10.026 0.949997 10.8601 1.645 10.8601 2.5C10.8601 3.355 10.026 4.05 9 4.05H6.6V5H9C10.656 5 12 3.88 12 2.5C12 1.12 10.656 0 9 0Z" fill="#323232"></path>
                                                   </svg>