<svg xmlns:xlink="http://www.w3.org/1999/xlink" style="display:none" task-action="" edit-task="18882" width="15" height="15" viewBox="0 0 15 15" fill="none" xmlns="http://www.w3.org/2000/svg">
                                <path d="M10.4844 2.43505L12.8333 5.07814C12.9323 5.18949 12.9323 5.37117 12.8333 5.48252L7.14583 11.8822L4.72917 12.184C4.40625 12.225 4.13281 11.9174 4.16927 11.554L4.4375 8.83473L10.125 2.43505C10.224 2.3237 10.3854 2.3237 10.4844 2.43505ZM14.7031 1.76402L13.4323 0.33405C13.0365 -0.11135 12.3932 -0.11135 11.9948 0.33405L11.0729 1.37136C10.974 1.48271 10.974 1.66439 11.0729 1.77574L13.4219 4.41883C13.5208 4.53018 13.6823 4.53018 13.7812 4.41883L14.7031 3.38152C15.099 2.93319 15.099 2.20942 14.7031 1.76402ZM10 10.1416V13.1246H1.66667V3.7478H7.65104C7.73437 3.7478 7.8125 3.70971 7.8724 3.64524L8.91406 2.47314C9.11198 2.25044 8.97135 1.87244 8.69271 1.87244H1.25C0.559896 1.87244 0 2.50244 0 3.27896V13.5935C0 14.37 0.559896 15 1.25 15H10.4167C11.1068 15 11.6667 14.37 11.6667 13.5935V8.96953C11.6667 8.65599 11.3307 8.50068 11.1328 8.72045L10.0911 9.89256C10.0339 9.95995 10 10.0479 10 10.1416Z" fill="#0029FF"></path>
                            </svg>